<svg width="107" height="107" viewBox="0 0 107 107" fill="none" xmlns="http://www.w3.org/2000/svg">
<circle cx="53.5" cy="53.5" r="53.5" fill="#F4F4F4"/>
<path d="M68.9805 34H38.3726C35.9577 34 34 35.9577 34 38.3726V68.9805C34 71.3954 35.9577 73.353 38.3726 73.353H68.9805C71.3954 73.353 73.353 71.3954 73.353 68.9805V38.3726C73.353 35.9577 71.3954 34 68.9805 34Z" stroke="#566474" stroke-width="2" stroke-linecap="round" stroke-linejoin="round"/>
<path d="M46.0245 49.304C47.8357 49.304 49.304 47.8357 49.304 46.0245C49.304 44.2134 47.8357 42.7451 46.0245 42.7451C44.2134 42.7451 42.7451 44.2134 42.7451 46.0245C42.7451 47.8357 44.2134 49.304 46.0245 49.304Z" stroke="#566474" stroke-width="2" stroke-linecap="round" stroke-linejoin="round"/>
<path d="M73.353 60.2354L62.4216 49.304L38.3726 73.353" stroke="#566474" stroke-width="2" stroke-linecap="round" stroke-linejoin="round"/>
</svg>
